PathFileType	4	(X/Y/Z)	Kaydara																																																																																																																									
DataRate	CameraRate	NumFrames	NumMarkers	Units	OrigDataRate	OrigDataStartFrame	OrigNumFrames																																																																																																																					
30	30	4	41	mm	30	175	232																																																																																																																					
Frame#	Time	EMLA_LFHD			EMLA_RFHD			EMLA_LBHD			EMLA_RBHD			EMLA_LFTShould			EMLA_RFTShould			EMLA_LRRShould			EMLA_RRRShould			EMLA_T10			EMLA_STRN			EMLA_TRUN			EMLA_LSHO			EMLA_LUPA			EMLA_LELB			EMLA_LFRM			EMLA_LWRA			EMLA_LWRB			EMLA_LFIN			EMLA_RSHO			EMLA_RUPA			EMLA_RELB			EMLA_RFRM			EMLA_RWRA			EMLA_RWRB			EMLA_RFIN			EMLA_LFWT			EMLA_RFWT			EMLA_LBWT			EMLA_RBWT			EMLA_LTHI			EMLA_LKNE			EMLA_LSHN			EMLA_LANK			EMLA_LHEE			EMLA_LTOE			EMLA_RTHI			EMLA_RKNE			EMLA_RSHN			EMLA_RANK			EMLA_RHEE			EMLA_RTOE		
		X1	Y1	Z1	X2	Y2	Z2	X3	Y3	Z3	X4	Y4	Z4	X5	Y5	Z5	X6	Y6	Z6	X7	Y7	Z7	X8	Y8	Z8	X9	Y9	Z9	X10	Y10	Z10	X11	Y11	Z11	X12	Y12	Z12	X13	Y13	Z13	X14	Y14	Z14	X15	Y15	Z15	X16	Y16	Z16	X17	Y17	Z17	X18	Y18	Z18	X19	Y19	Z19	X20	Y20	Z20	X21	Y21	Z21	X22	Y22	Z22	X23	Y23	Z23	X24	Y24	Z24	X25	Y25	Z25	X26	Y26	Z26	X27	Y27	Z27	X28	Y28	Z28	X29	Y29	Z29	X30	Y30	Z30	X31	Y31	Z31	X32	Y32	Z32	X33	Y33	Z33	X34	Y34	Z34	X35	Y35	Z35	X36	Y36	Z36	X37	Y37	Z37	X38	Y38	Z38	X39	Y39	Z39	X40	Y40	Z40	X41	Y41	Z41
																																																																																																																												
175	5.81	232.73642	1564.0567	-731.33461	70.02075	1554.10019	-681.47873	201.79255	1552.78534	-878.32146	15.36827	1544.66049	-824.09485	223.70028	1326.02768	-776.40579	74.85438	1305.51453	-763.24089	191.37953	1401.62811	-909.69223	40.64337	1381.24725	-895.28503	129.00042	1233.69888	-985.25414	154.99066	1243.97522	-744.69078	154.06279	1138.97362	-744.62265	334.69696	1372.90512	-843.46909	402.55375	1240.18066	-949.68147	444.104	1128.62877	-1027.33017	473.75175	1021.08055	-1100.17845	456.84036	835.77354	-1113.35571	493.58253	876.66336	-1180.75211	514.15611	815.98282	-1154.77646	-51.37233	1351.19614	-813.06747	-110.78633	1167.43774	-773.13141	-136.82605	1028.20358	-740.62363	-114.57102	936.81198	-685.1017	8.2454	893.13187	-528.89915	-39.52134	824.5591	-557.30957	-38.04377	839.94408	-493.82225	225.40663	915.26657	-808.47092	-4.20442	923.41049	-858.0838	242.4684	939.2971	-1010.82031	68.27676	968.12645	-1031.11221	283.21081	647.70493	-873.68477	291.7417	505.93098	-711.96404	269.2135	348.99632	-616.37897	275.13498	159.62094	-597.8595	211.25454	60.51288	-617.43034	239.7492	127.87581	-433.06442	36.68055	721.03851	-1112.88795	-1.35993	506.48598	-1125.31754	58.52477	292.25521	-1184.48036	39.80245	166.32374	-1316.43173	101.39222	140.23134	-1379.8555	64.99821	61.058	-1203.20419
176	5.843	237.63853	1560.54504	-671.06995	72.40214	1550.57587	-628.60954	213.26969	1547.27646	-819.16992	24.10037	1539.22577	-773.78792	231.30672	1320.44724	-719.23492	82.93353	1301.92703	-702.16606	196.59788	1395.8905	-851.68373	45.73245	1378.25256	-833.01025	130.01806	1229.1893	-926.623	162.41426	1239.46785	-685.52933	159.90829	1134.49005	-685.7946	341.35521	1365.17914	-789.21097	402.25132	1227.41287	-895.80345	439.78176	1113.38974	-969.46136	469.5892	1009.07249	-1042.32651	460.95116	822.99644	-1059.71008	493.83152	869.11575	-1125.67345	517.85221	807.8022	-1103.76656	-44.53816	1347.7475	-748.74176	-104.89271	1163.02483	-713.22998	-134.33038	1023.00911	-688.04001	-112.00799	931.13823	-632.61242	8.6091	889.02603	-474.44233	-36.91751	819.3734	-504.02348	-37.8767	835.26688	-440.43495	227.26393	913.58192	-747.93884	-2.48758	917.75215	-798.97018	245.88379	935.40115	-950.23315	71.90764	961.04485	-971.61285	288.13509	646.85432	-809.97635	295.87505	503.52585	-649.13452	272.97853	344.55666	-555.46017	274.94783	154.93798	-539.89342	208.53374	55.94975	-558.05004	243.78756	123.71186	-375.12291	41.77781	718.38249	-1053.33702	-1.60989	505.70694	-1073.78075	56.60281	295.75455	-1151.50391	37.38189	182.97865	-1294.53796	98.77155	164.99775	-1359.18182	65.15099	60.13791	-1197.99225
177	5.877	243.48135	1562.58804	-609.90166	76.42209	1551.63498	-574.42646	225.26958	1547.10236	-758.5997	34.69977	1537.89078	-721.05881	239.40725	1319.00681	-658.93272	91.56748	1303.69858	-639.29005	203.66138	1392.98157	-791.98982	52.73454	1379.35104	-771.43555	133.78301	1227.61368	-862.54417	170.26781	1239.83292	-622.70687	165.96817	1134.87053	-622.23248	348.96053	1360.64713	-731.2719	406.28326	1215.90637	-835.02861	439.52705	1100.04486	-903.284	467.95483	995.5648	-974.55894	461.44634	808.68179	-991.48422	491.7326	856.93283	-1056.81839	516.88221	795.63072	-1037.82669	-36.56955	1351.07285	-683.59451	-98.86145	1165.24956	-653.98758	-129.66519	1023.33885	-638.50624	-108.93142	928.33847	-588.48125	5.59801	877.77092	-429.16458	-37.14171	808.86635	-463.80844	-41.34438	821.9252	-399.44263	230.73557	915.66895	-680.78209	0.63449	912.11006	-730.89516	250.27124	936.02646	-881.8396	75.73692	955.70305	-903.48053	294.68864	648.49945	-741.36528	300.4697	499.36417	-587.72259	274.97776	330.38128	-507.20646	269.03036	139.36206	-511.96396	198.89175	50.26612	-535.51586	246.9766	92.52016	-348.87768	49.88244	712.09259	-982.49802	-3.21769	503.08456	-1008.69476	53.10886	298.89133	-1104.40414	35.21408	201.90928	-1259.17908	97.70542	193.211	-1321.45523	65.07822	57.31487	-1190.41458
178	5.91	248.45009	1567.31613	-548.50567	80.68558	1554.71024	-519.87091	237.13154	1550.02472	-697.77786	45.43244	1538.64685	-667.57278	247.3148	1320.83984	-597.13188	99.62179	1309.92538	-574.88243	212.08654	1391.27869	-731.21033	61.71862	1382.3616	-710.02792	138.71295	1225.46532	-797.59232	177.58608	1244.37134	-557.97768	171.95831	1139.52599	-554.06811	356.92307	1356.86508	-671.10214	413.19729	1206.29532	-768.19115	443.42258	1086.96938	-831.65108	469.75285	979.52766	-898.4745	458.05931	792.27814	-908.6293	490.60345	837.81006	-975.09048	512.66258	775.71213	-955.41374	-28.4541	1357.73071	-620.34199	-91.65018	1171.48315	-596.00147	-124.9699	1028.17032	-589.74876	-107.88238	928.41835	-549.34547	0.40946	859.44405	-392.74822	-41.69098	794.88174	-436.16753	-48.23558	801.24275	-370.9763	235.91223	922.54723	-616.36852	5.56366	905.51689	-660.40169	253.29552	941.09047	-816.68732	76.83115	952.28821	-834.10812	298.70245	653.72406	-675.56938	306.81707	506.63383	-520.6834	276.75537	331.65703	-455.21118	274.00898	144.8041	-481.67839	204.27847	58.14735	-525.26421	244.35453	68.6329	-331.42124	54.94882	700.28549	-903.91701	-7.71845	492.33383	-924.96346	46.43581	297.32935	-1042.64183	31.8684	220.2203	-1209.13048	97.10504	223.74781	-1265.35385	63.30178	57.45778	-1177.66708
